<?xml version="1.0" encoding="UTF-8"?>
<svg class="tanuki-logo" width="24" height="24" viewBox="0 0 36 36"
  xmlns="http://www.w3.org/2000/svg">
  <path class="tanuki-shape tanuki-left-ear" d="M2 14l9.38 9v-9l-4-12.28c-.205-.632-1.176-.632-1.38 0z" fill="#e24329"/>
  <path class="tanuki-shape tanuki-right-ear" d="M34 14l-9.38 9v-9l4-12.28c.205-.632 1.176-.632 1.38 0z" fill="#e24329"/>
  <path class="tanuki-shape tanuki-nose" d="m18 34.38-15-20.38h30z" fill="#e24329"/>
  <path class="tanuki-shape tanuki-left-eye" d="M18,34.38 11.38,14 2,14 6,25Z" fill="#fc6d26"/>
  <path class="tanuki-shape tanuki-right-eye" d="M18,34.38 24.62,14 34,14 30,25Z" fill="#fc6d26"/>
  <path class="tanuki-shape tanuki-left-cheek" d="M2 14L.1 20.16c-.18.565 0 1.2.5 1.56l17.42 12.66z" fill="#fca326"/>
  <path class="tanuki-shape tanuki-right-cheek" d="M34 14l1.9 6.16c.18.565 0 1.2-.5 1.56L18 34.38z" fill="#fca326"/>
</svg>
