<?xml version="1.0" encoding="UTF-8"?>
<svg class="iconify iconify--logos" width="35.93" height="32" aria-hidden="true" role="img" viewBox="0 0 256 228"
  xmlns="http://www.w3.org/2000/svg">
  <path d="m210.48 73.824a171.49 171.49 0 0 0-8.24-2.597c0.465-1.9 0.893-3.777 1.273-5.621 6.238-30.281 2.16-54.676-11.769-62.708-13.355-7.7-35.196 0.329-57.254 19.526a171.23 171.23 0 0 0-6.375 5.848 155.87 155.87 0 0 0-4.241-3.917c-23.118-20.526-46.29-29.177-60.204-21.122-13.343 7.724-17.294 30.657-11.678 59.355a170.97 170.97 0 0 0 1.892 8.48c-3.28 0.932-6.445 1.924-9.474 2.98-27.104 9.45-44.413 24.259-44.413 39.62 0 15.865 18.582 31.778 46.812 41.427a145.52 145.52 0 0 0 6.921 2.165 167.47 167.47 0 0 0-2.01 9.138c-5.354 28.2-1.173 50.591 12.134 58.266 13.744 7.926 36.812-0.22 59.273-19.855a145.57 145.57 0 0 0 5.342-4.923 168.06 168.06 0 0 0 6.92 6.314c21.758 18.722 43.246 26.282 56.54 18.586 13.731-7.949 18.194-32.003 12.4-61.268a145.02 145.02 0 0 0-1.535-6.842c1.62-0.48 3.21-0.974 4.76-1.488 29.348-9.723 48.443-25.443 48.443-41.52 0-15.417-17.868-30.326-45.517-39.844zm-6.365 70.984c-1.4 0.463-2.836 0.91-4.3 1.345-3.24-10.257-7.612-21.163-12.963-32.432 5.106-11 9.31-21.767 12.459-31.957 2.619 0.758 5.16 1.557 7.61 2.4 23.69 8.156 38.14 20.213 38.14 29.504 0 9.896-15.606 22.743-40.946 31.14zm-10.514 20.834c2.562 12.94 2.927 24.64 1.23 33.787-1.524 8.219-4.59 13.698-8.382 15.893-8.067 4.67-25.32-1.4-43.927-17.412a156.73 156.73 0 0 1-6.437-5.87c7.214-7.889 14.423-17.06 21.459-27.246 12.376-1.098 24.068-2.894 34.671-5.345a134.17 134.17 0 0 1 1.386 6.193zm-106.33 48.873c-7.882 2.783-14.16 2.863-17.955 0.675-8.075-4.657-11.432-22.636-6.853-46.752a156.92 156.92 0 0 1 1.869-8.499c10.486 2.32 22.093 3.988 34.498 4.994 7.084 9.967 14.501 19.128 21.976 27.15a134.67 134.67 0 0 1-4.877 4.492c-9.933 8.682-19.886 14.842-28.658 17.94zm-36.926-69.768c-12.483-4.267-22.792-9.812-29.858-15.863-6.35-5.437-9.555-10.836-9.555-15.216 0-9.322 13.897-21.212 37.076-29.293 2.813-0.98 5.757-1.905 8.812-2.773 3.204 10.42 7.406 21.315 12.477 32.332-5.137 11.18-9.399 22.249-12.634 32.792a134.72 134.72 0 0 1-6.318-1.979zm12.378-84.26c-4.811-24.587-1.616-43.134 6.425-47.789 8.564-4.958 27.502 2.111 47.463 19.835a144.32 144.32 0 0 1 3.841 3.545c-7.438 7.987-14.787 17.08-21.808 26.988-12.04 1.116-23.565 2.908-34.161 5.309a160.34 160.34 0 0 1-1.76-7.887zm110.43 27.268a347.8 347.8 0 0 0-7.785-12.803c8.168 1.033 15.994 2.404 23.343 4.08-2.206 7.072-4.956 14.465-8.193 22.045a381.15 381.15 0 0 0-7.365-13.322zm-45.032-43.861c5.044 5.465 10.096 11.566 15.065 18.186a322.04 322.04 0 0 0-30.257-6e-3c4.974-6.559 10.069-12.652 15.192-18.18zm-45.321 43.936a323.17 323.17 0 0 0-7.227 13.238c-3.184-7.553-5.909-14.98-8.134-22.152 7.304-1.634 15.093-2.97 23.209-3.984a321.52 321.52 0 0 0-7.848 12.897zm8.081 65.352c-8.385-0.936-16.291-2.203-23.593-3.793 2.26-7.3 5.045-14.885 8.298-22.6a321.19 321.19 0 0 0 7.257 13.246c2.594 4.48 5.28 8.868 8.038 13.147zm37.542 31.03c-5.184-5.592-10.354-11.779-15.403-18.433 4.902 0.192 9.899 0.29 14.978 0.29 5.218 0 10.376-0.117 15.453-0.343-4.985 6.774-10.018 12.97-15.028 18.486zm52.198-57.817c3.422 7.8 6.306 15.345 8.596 22.52-7.422 1.694-15.436 3.058-23.88 4.071a382.42 382.42 0 0 0 7.859-13.026 347.4 347.4 0 0 0 7.425-13.565zm-16.898 8.101a358.56 358.56 0 0 1-12.281 19.815 329.4 329.4 0 0 1-23.444 0.823c-7.967 0-15.716-0.248-23.178-0.732a310.2 310.2 0 0 1-12.513-19.846h1e-3a307.41 307.41 0 0 1-10.923-20.627 310.28 310.28 0 0 1 10.89-20.637l-1e-3 1e-3a307.32 307.32 0 0 1 12.413-19.761c7.613-0.576 15.42-0.876 23.31-0.876h1e-3c7.926 0 15.743 0.303 23.354 0.883a329.36 329.36 0 0 1 12.335 19.695 358.49 358.49 0 0 1 11.036 20.54 329.47 329.47 0 0 1-11 20.722zm22.56-122.12c8.572 4.944 11.906 24.881 6.52 51.026-0.344 1.668-0.73 3.367-1.15 5.09-10.622-2.452-22.155-4.275-34.23-5.408-7.034-10.017-14.323-19.124-21.64-27.008a160.79 160.79 0 0 1 5.888-5.4c18.9-16.447 36.564-22.941 44.612-18.3zm-58.285 78.436c12.625 0 22.86 10.235 22.86 22.86s-10.235 22.86-22.86 22.86-22.86-10.235-22.86-22.86 10.235-22.86 22.86-22.86z" fill="#00D8FF"/>
</svg>
